<svg t="1648900572200" class="icon" viewBox="0 0 1024 1024" version="1.1" xmlns="http://www.w3.org/2000/svg" p-id="16801" width="200" height="200"><path d="M689.000761 126.762055 334.998215 126.762055c-114.999151 0-208.236672 93.218078-208.236672 208.236672l0 354.002546c0 114.996081 93.237521 208.236672 208.236672 208.236672l354.001523 0c115.018593 0 208.236672-93.240591 208.236672-208.236672l0-354.002546C897.237433 219.980133 804.019355 126.762055 689.000761 126.762055zM834.766636 689.001273c0 80.487126-65.259306 145.764851-145.765875 145.764851L334.998215 834.766125c-80.489172 0-145.765875-65.277726-145.765875-145.764851l0-354.002546c0-80.511685 65.276702-145.765875 145.765875-145.765875l354.001523 0c80.506569 0 145.765875 65.25419 145.765875 145.765875L834.765613 689.001273zM562.308291 379.531989c34.30634 0 60.618613-28.89919 60.618613-60.134589 0-25.01165-15.149025-46.870494-45.466518-46.870494-39.881312 0-59.809177 34.365692-59.809177 59.357899C516.83768 361.575012 533.594319 379.531989 562.308291 379.531989zM559.116599 676.451446c-5.569856 0-7.992021-7.80885-2.4017-30.441313l31.460526-128.176264c11.957333-46.87254 7.971555-77.337389-15.943111-77.337389-28.714995 0-95.698572 30.685883-153.940045 83.032088l11.957333 21.086248c18.364253-13.279445 49.437969-26.780947 56.615439-26.780947 5.589298 0 4.797259 7.809873 0 27.332509L459.391317 667.096381c-16.756639 68.756967 0.793062 84.374666 24.747637 84.374666 23.934109 0 85.754083-23.487947 142.389988-84.414575l-13.563924-19.522636C589.844437 667.056472 566.294069 676.451446 559.116599 676.451446z" p-id="16802"></path></svg>