<svg t="1650106764256" class="icon" viewBox="0 0 1024 1024" version="1.1" xmlns="http://www.w3.org/2000/svg" p-id="10541" width="200" height="200"><path d="M265.2 566c-10.5 8.5-21.8 20.8-25 36.5-4.4 21.4-0.9 48.3 19.8 69.3 25 25.5 63.1 32.5 79.6 33.7 44.7 3.2 92.3-18.9 128.2-44.2 14.1-9.9 38.1-29.8 61.2-60.6-51.6-26.6-116-56.1-184.8-53.2-35.4 1.5-60.6 8.8-79 18.5z m654.2 117.8c22.8-53.4 35.4-112.2 35.4-173.9C954.8 264.6 755.2 65 509.9 65 264.5 65.1 65 264.7 65 510s199.6 444.9 444.9 444.9c148.1 0 279.4-72.7 360.3-184.3C793.7 732.5 667.7 670 590 632.1c-37 42.2-91.8 84.5-153.7 103-38.9 11.5-73.9 16-110.5 8.5-36.3-7.4-63-24.4-78.6-41.4-7.9-8.7-17-19.7-23.6-32.9 0.6 1.7 1 2.7 1 2.7s-3.8-6.5-6.7-16.9c-1.5-5-2.5-10.3-2.9-15.8-0.3-3.6-0.4-7.4-0.2-11.3-0.3-6.7-0.1-13.7 1.5-20.9 3.6-17.6 11.1-38.1 30.6-57.1 42.6-41.7 99.7-44 129.3-43.8 43.8 0.2 120 19.4 184.1 42.1 17.8-37.8 29.1-78.3 36.5-105.2H330.3v-28.8h136.9v-57.6H301.4v-28.8h165.7V270c0-7.9 1.6-14.4 14.4-14.4h64.8v72h180.1v28.8h-180V414h144.1s-14.5 80.7-59.7 160.2c100.4 35.9 241.6 91.2 288.6 109.6z" p-id="10542"></path></svg>