<svg t="1648900234439" class="icon" viewBox="0 0 1024 1024" version="1.1" xmlns="http://www.w3.org/2000/svg" p-id="9393" width="200" height="200"><path d="M213.333333 853.333333a42.666667 42.666667 0 0 1-85.333333 0v-256a42.666667 42.666667 0 0 1 85.333333 0v256z m213.333334 0a42.666667 42.666667 0 0 1-85.333334 0v-384a42.666667 42.666667 0 0 1 85.333334 0v384z m213.333333 0a42.666667 42.666667 0 0 1-85.333333 0v-341.333333a42.666667 42.666667 0 0 1 85.333333 0v341.333333z m213.333333 0a42.666667 42.666667 0 0 1-85.333333 0V384a42.666667 42.666667 0 0 1 85.333333 0v469.333333zM197.333333 459.946667a42.666667 42.666667 0 1 1-53.333333-66.56l213.333333-170.666667a42.666667 42.666667 0 0 1 42.496-6.314667l192.512 76.970667 237.312-158.208a42.666667 42.666667 0 0 1 47.36 70.997333l-256 170.666667a42.666667 42.666667 0 0 1-39.509333 4.096l-190.293333-76.074667-193.877334 155.136z" p-id="9394"></path></svg>