<svg t="1648546626763" class="icon" viewBox="0 0 1024 1024" version="1.1" xmlns="http://www.w3.org/2000/svg" p-id="11404" width="128" height="128"><path d="M134.436571 512.219429c0 22.272 15.414857 38.144 38.125715 38.144H605.44l91.721143-2.998858-141.001143 128.548572-94.72 96a41.124571 41.124571 0 0 0-10.715429 27.867428c0 21.430857 16.292571 36.864 37.302858 36.864 10.697143 0 20.132571-3.858286 29.129142-12.434285l283.721143-283.282286c6.418286-5.997714 10.276571-12.854857 11.995429-20.150857v280.722286c0 21.851429 16.274286 36.864 38.582857 36.864 22.272 0 38.125714-14.994286 38.125714-36.864V223.36c0-22.290286-15.853714-37.723429-38.144-37.723429-22.272 0-38.564571 15.433143-38.564571 37.723429V503.222857a39.734857 39.734857 0 0 0-11.995429-20.150857L517.12 199.789714c-8.996571-8.576-18.432-12.854857-29.129143-12.854857-21.010286 0-37.302857 15.853714-37.302857 37.284572 0 10.276571 3.858286 20.571429 10.715429 27.428571l94.72 96.420571 140.580571 129.005715-91.300571-3.437715H172.562286c-22.710857 0-38.125714 15.853714-38.125715 38.582858z" p-id="11405"></path></svg>