<svg t="1648546571587" class="icon" viewBox="0 0 1024 1024" version="1.1" xmlns="http://www.w3.org/2000/svg" p-id="15612" width="128" height="128"><path d="M211.145143 801.499429V520.777143c2.139429 7.296 5.997714 14.153143 12.434286 20.150857l283.702857 283.282286c8.996571 8.576 18.432 12.434286 28.708571 12.434285 21.430857 0 37.723429-15.433143 37.723429-36.864a41.142857 41.142857 0 0 0-10.715429-27.849142l-94.72-96-141.421714-128.566858 92.141714 2.998858h432.859429c22.290286 0 37.705143-15.872 37.705143-38.144 0-22.710857-15.414857-38.582857-37.705143-38.582858H418.998857l-91.721143 3.437715 141.001143-129.005715 94.72-96.420571c6.857143-6.857143 10.715429-17.152 10.715429-27.428571 0-21.430857-16.274286-37.302857-37.723429-37.302858-10.276571 0-19.712 4.297143-28.708571 12.873143L223.579429 483.072a43.940571 43.940571 0 0 0-12.434286 20.150857V223.36c0-22.290286-15.853714-37.723429-38.144-37.723429-22.710857 0-38.582857 15.433143-38.582857 37.723429v578.139429c0 21.851429 15.872 36.864 38.582857 36.864 22.290286 0 38.144-14.994286 38.144-36.864z" p-id="15613"></path></svg>