<svg t="1649751755563" class="icon" viewBox="0 0 1024 1024" version="1.1" xmlns="http://www.w3.org/2000/svg" p-id="4152" width="200" height="200"><path d="M904.13861 140.861168 105.854375 140.861168c-27.586288 0-42.014906 28.187993-42.014906 56.019875l0 644.242883c0 27.079752 14.921851 42.014906 42.014906 42.014906l798.284235 0c27.832905 0 56.019875-14.44192 56.019875-42.014906l0-644.242883C960.158485 169.657005 931.369811 140.861168 904.13861 140.861168zM932.149571 841.123926c0 9.655917-16.385179 13.991666-28.010961 13.991666L105.854375 855.115592c-11.775184 0-14.004969-2.229784-14.004969-13.991666l0-517.056156c0.943488 0.205685 1.819438-1.134847 2.817162-1.134847l837.481979 0L932.148547 841.123926zM932.149571 294.921963 94.667591 294.921963c-0.998747 0-1.873674 2.072195-2.817162 2.270716l0-100.311637c0-11.618619 4.349051-28.002774 14.004969-28.002774l798.284235 0c11.776208 0 28.010961 16.23373 28.010961 28.002774L932.150594 294.921963zM169.90311 655.668097c1.901303 1.50426 4.226255 3.391237 6.838755 3.391237l125.184117 0 0 70.024843 28.009937 0 0-70.024843 39.361473 0c2.653433 0 2.051729-2.133593 3.296069-3.583618 1.286296-1.476631-0.642636-4.677533-0.642636-6.783497l0-17.642822-42.014906 0L329.935919 448.970478l-28.940123 0L162.668335 631.405507l3.555989 17.492396C166.770769 651.126664 167.988504 654.121881 169.90311 655.668097zM304.168046 488.996077c-0.670266 4.226255-1.285273 7.05058-1.517563 11.016915-0.178055 3.966335-0.724501 7.679913-0.724501 11.133571l0 119.903857-100.93483 0L304.168046 488.996077zM410.791435 698.707332c9.245572 11.913331 20.132526 20.761859 32.659841 26.616194 12.500709 5.838985 26.041096 8.698103 40.606837 8.698103 14.402011 0 27.954679-2.859118 40.591487-8.698103 12.597923-5.854335 23.594371-14.702863 32.852222-26.616194 9.259898-11.897981 16.563234-26.956955 21.896706-45.146223 5.360078-18.21792 8.042163-39.745213 8.042163-64.636113 0-24.858154-2.682086-46.439682-8.042163-64.704674-5.334495-18.257829-12.637832-33.357735-21.896706-45.345768-9.257851-11.966543-20.2543-20.897959-32.852222-26.704199-12.637832-5.805216-26.190499-8.746198-40.591487-8.746198-14.564717 0-28.106128 2.940982-40.606837 8.746198-12.527314 5.806239-23.414269 14.736633-32.659841 26.704199-9.258874 11.988032-16.534582 27.087938-21.828145 45.345768-5.333472 18.266016-7.93267 39.84652-7.93267 64.704674 0 24.8909 2.599198 46.418192 7.93267 64.636113C394.256854 671.750377 401.532561 686.809351 410.791435 698.707332zM423.017898 534.251793c3.638877-14.750959 8.493441-26.634614 14.59337-35.634592 6.058996-8.972349 13.144368-15.47546 21.240767-19.36607 8.069793-3.857864 16.452717-5.840008 25.206078-5.840008 8.740058 0 17.10968 1.983167 25.206078 5.840008 8.082072 3.89061 15.207353 10.393721 21.335934 19.36607 6.141884 8.999978 11.024078 20.883633 14.70184 35.634592 3.6399 14.749936 5.443989 32.994462 5.443989 54.673204 0 21.718651-1.805112 39.908942-5.443989 54.597479-3.677762 14.688537-8.559956 26.533306-14.70184 35.533284-6.127558 8.998955-13.252839 15.481599-21.335934 19.36607-8.096399 3.898797-16.46602 5.840008-25.206078 5.840008-8.753361 0-17.136286-1.941212-25.206078-5.840008-8.096399-3.88447-15.181771-10.367115-21.240767-19.36607-6.099928-8.999978-10.954493-20.843724-14.59337-35.533284-3.664459-14.688537-5.470595-32.878828-5.470595-54.597479C417.548326 567.246255 419.353438 549.001729 423.017898 534.251793zM598.683756 655.668097c1.914606 1.50426 4.197602 3.391237 6.837732 3.391237l130.559545 0 0 70.024843 28.008914 0 0-70.024843 34.001395 0c2.638083 0 4.745071-2.133593 5.990434-3.583618 1.245364-1.476631 2.025123-4.677533 2.025123-6.783497l0-17.642822-42.015929 0L764.09097 448.970478l-34.301224 0-138.381697 182.434006 3.569292 17.492396C595.538113 651.126664 596.740498 654.121881 598.683756 655.668097zM734.287177 488.996077c-0.655939 4.226255 0.014326 7.05058-0.163729 11.016915-0.220011 3.966335 1.956561 7.679913 1.956561 11.133571l0 119.903857-106.352213 0L734.287177 488.996077zM151.097812 216.575594c-10.394744 0-18.805298 8.41874-18.805298 18.832927 0 10.393721 8.411577 18.819624 18.805298 18.819624 10.408047 0 18.819624-8.42488 18.819624-18.819624C169.916413 224.993311 161.505859 216.575594 151.097812 216.575594zM226.346633 216.575594c-10.394744 0-18.805298 8.41874-18.805298 18.832927 0 10.393721 8.411577 18.819624 18.805298 18.819624 10.408047 0 18.819624-8.42488 18.819624-18.819624C245.166257 224.993311 236.75468 216.575594 226.346633 216.575594zM301.596478 216.575594c-10.394744 0-18.805298 8.41874-18.805298 18.832927 0 10.393721 8.411577 18.819624 18.805298 18.819624s18.819624-8.42488 18.819624-18.819624C320.416102 224.993311 311.991222 216.575594 301.596478 216.575594z" p-id="4153" fill="#1296db"></path></svg>