<svg t="1650106633094" class="icon" viewBox="0 0 1025 1024" version="1.1" xmlns="http://www.w3.org/2000/svg" p-id="7920" width="200" height="200"><path d="M511.9535 63.941187c-247.458725 0-448.062313 200.602588-448.062313 448.061313 0 247.453725 200.603588 448.057313 448.062313 448.057313 247.453725 0 448.052313-200.603588 448.052313-448.057313C960.005813 264.543775 759.407225 63.941187 511.9535 63.941187L511.9535 63.941187zM470.406378 735.326154c-114.514335 0-231.571678-55.497163-231.571678-146.77843 0-47.72214 30.232089-102.906301 82.306241-154.983454 69.523204-69.506204 150.599441-101.167296 181.093531-70.660207 13.454039 13.437039 14.757043 36.716108 6.107018 64.506189-4.504013 13.997041 13.138038 6.244018 13.138038 6.278018 56.197165-23.528069 105.222308-24.916073 123.142361 0.688002 9.562028 13.64204 8.647025 32.776096-0.166 54.950161-4.078012 10.21503 1.256004 11.796035 9.026026 14.129041 31.665093 9.816029 66.907196 33.559098 66.907196 75.400221C720.390111 648.104899 620.530818 735.326154 470.406378 735.326154L470.406378 735.326154zM677.718986 445.086304c3.706011-11.441034 1.385004-24.485072-7.248021-34.0541-8.624025-9.552028-21.373063-13.176039-33.131097-10.693031L637.339867 400.317173c-9.809029 2.137006-19.472057-4.159012-21.575063-13.959041-2.111006-9.838029 4.154012-19.515057 13.985041-21.609063 24.05307-5.111015 50.106147 2.321007 67.748198 21.895064 17.682052 19.575057 22.413066 46.235135 14.853044 69.626204-3.086009 9.573028-13.344039 14.787043-22.904067 11.728034-9.560028-3.095009-14.788043-13.365039-11.706034-22.917067l-0.018 0L677.718986 445.086304zM783.742296 479.324404c-0.004 0.018-0.004 0.06-0.004 0.081-3.599011 11.095033-15.523045 17.16905-26.610078 13.57904-11.133033-3.595011-17.21505-15.489045-13.62504-26.610078l-0.004-0.009c11.027032-34.1401 4.035012-73.082214-21.715064-101.628298-25.772076-28.554084-63.770187-39.461116-98.88529-32.003094-11.420033 2.431007-22.651066-4.856014-25.088074-16.267048-2.444007-11.397033 4.838014-22.638066 16.258048-25.083073l0.021 0c49.359145-10.492031 102.829301 4.829014 139.085407 45.025132C789.439313 376.562103 799.213341 431.303264 783.742296 479.324404L783.742296 479.324404zM783.742296 479.324404" p-id="7921"></path><path d="M624.54883 570.13167c-5.924017-59.970176-84.807248-101.273297-176.195516-92.23827-91.371268 9.034026-160.659471 64.97919-154.723453 124.959366 5.936017 60.001176 84.814248 101.304297 176.195516 92.28627C561.213644 686.09901 630.476847 630.149846 624.54883 570.13167L624.54883 570.13167zM528.526548 619.374815c-18.647055 42.179124-72.288212 64.669189-117.792345 49.991146-43.932129-14.176042-62.532183-57.556169-43.298127-96.632283 18.890055-38.315112 68.035199-59.984176 111.517327-48.671143C523.957535 535.692569 546.920602 578.144694 528.526548 619.374815L528.526548 619.374815zM528.526548 619.374815" p-id="7922"></path><path d="M435.544276 587.23972c-14.147041-5.932017-32.439095 0.166-41.170121 13.860041-8.838026 13.74904-4.693014 30.126088 9.359027 36.525107 14.254042 6.509019 33.179097 0.329001 42.022123-13.77104 8.680025-14.241042 4.107012-30.511089-10.20603-36.614107L435.544276 587.23972zM435.544276 587.23972" p-id="7923"></path><path d="M470.419378 572.780678c-5.428016-2.154006-12.219036 0.457001-15.404045 5.796017-3.090009 5.368016-1.384004 11.484034 4.057012 13.71904 5.534016 2.278007 12.599037-0.350001 15.796046-5.812017C477.9194 580.982702 475.937394 574.798684 470.419378 572.780678L470.419378 572.780678zM470.419378 572.780678" p-id="7924"></path></svg>