<svg t="1650106596192" class="icon" viewBox="0 0 1024 1024" version="1.1" xmlns="http://www.w3.org/2000/svg" p-id="6935" width="200" height="200"><path d="M575.607 514.224c-9.549 0-19.153 9.603-19.153 19.135 0 9.691 9.604 19.169 19.153 19.169 14.479 0 23.955-9.478 23.955-19.169C599.563 523.826 590.086 514.224 575.607 514.224z" p-id="6936"></path><path d="M680.926 514.224c-9.479 0-19.027 9.603-19.027 19.135 0 9.691 9.548 19.169 19.027 19.169 14.352 0 23.955-9.478 23.955-19.169C704.881 523.826 695.277 514.224 680.926 514.224z" p-id="6937"></path><path d="M379.324 375.358c-14.333 0-28.828 9.459-28.828 23.882 0 14.351 14.495 23.952 28.828 23.952 14.353 0 23.885-9.602 23.885-23.952C403.209 384.818 393.677 375.358 379.324 375.358z" p-id="6938"></path><path d="M513.346 423.192c14.405 0 23.956-9.602 23.956-23.952 0-14.422-9.551-23.882-23.956-23.882-14.352 0-28.775 9.459-28.775 23.882C484.571 413.591 498.994 423.192 513.346 423.192z" p-id="6939"></path><path d="M520.584 66.692c-247.061 0-447.566 200.392-447.566 447.529 0 247.138 200.505 447.53 447.566 447.53 247.087 0 447.496-200.393 447.496-447.529C968.08 267.084 767.67 66.692 520.584 66.692zM441.534 619.657c-23.902 0-43.109-4.874-67.064-9.603l-66.938 33.574 19.136-57.618c-47.911-33.483-76.615-76.678-76.615-129.242 0-91.103 86.216-162.836 191.482-162.836 94.131 0 176.607 57.292 193.189 134.441-6.08-0.684-12.23-1.116-18.436-1.116-90.964 0-162.778 67.868-162.778 151.525 0 13.899 2.158 27.316 5.9 40.12C453.494 619.37 447.54 619.657 441.534 619.657zM723.963 686.716l14.424 47.87-52.516-28.772c-19.153 4.801-38.396 9.604-57.461 9.604-91.107 0-162.85-62.259-162.85-138.937 0-76.555 71.742-138.938 162.85-138.938 86.002 0 162.636 62.383 162.636 138.938C791.045 619.657 762.413 657.906 723.963 686.716z" p-id="6940"></path></svg>